P2
16 32
210
0 0 0 0 0 0 0 0 0 0 0 0 0 0 0 0 
0 0 0 0 0 0 0 0 0 0 0 0 0 0 0 0 
210 209 210 209 210 209 210 209 210 209 210 209 210 209 210 209 
2 3 2 3 2 3 2 3 2 3 2 3 2 3 2 3 
35 32 35 32 35 32 35 32 35 32 35 32 35 32 35 32 
199 194 199 194 199 194 199 194 199 194 199 194 199 194 199 194 
0 0 0 0 0 0 0 0 0 0 0 0 0 0 0 0 
0 0 0 0 0 0 0 0 0 0 0 0 0 0 0 0 
210 209 210 209 210 209 210 209 210 209 210 209 210 209 210 209 
2 3 2 3 2 3 2 3 2 3 2 3 2 3 2 3 
35 32 35 32 35 32 35 32 35 32 35 32 35 32 35 32 
199 194 199 194 199 194 199 194 199 194 199 194 199 194 199 194 
0 0 0 0 0 0 0 0 0 0 0 0 0 0 0 0 
0 0 0 0 0 0 0 0 0 0 0 0 0 0 0 0 
210 209 210 209 210 209 210 209 210 209 210 209 210 209 210 209 
2 3 2 3 2 3 2 3 2 3 2 3 2 3 2 3 
35 32 35 32 35 32 35 32 35 32 35 32 35 32 35 32 
199 194 199 194 199 194 199 194 199 194 199 194 199 194 199 194 
0 0 0 0 0 0 0 0 0 0 0 0 0 0 0 0 
0 0 0 0 0 0 0 0 0 0 0 0 0 0 0 0 
210 209 210 209 210 209 210 209 210 209 210 209 210 209 210 209 
2 3 2 3 2 3 2 3 2 3 2 3 2 3 2 3 
35 32 35 32 35 32 35 32 35 32 35 32 35 32 35 32 
199 194 199 194 199 194 199 194 199 194 199 194 199 194 199 194 
0 0 0 0 0 0 0 0 0 0 0 0 0 0 0 0 
0 0 0 0 0 0 0 0 0 0 0 0 0 0 0 0 
210 209 210 209 210 209 210 209 210 209 210 209 210 209 210 209 
2 3 2 3 2 3 2 3 2 3 2 3 2 3 2 3 
35 32 35 32 35 32 35 32 35 32 35 32 35 32 35 32 
199 194 199 194 199 194 199 194 199 194 199 194 199 194 199 194 
79 76 79 76 79 76 79 76 79 76 79 76 79 76 79 76 
83 80 83 80 83 80 83 80 83 80 83 80 83 80 83 80 
